<?xml version="1.0" encoding="UTF-8" standalone="no"?>
<svg
   xmlns:dc="http://purl.org/dc/elements/1.1/"
   xmlns:cc="http://creativecommons.org/ns#"
   xmlns:rdf="http://www.w3.org/1999/02/22-rdf-syntax-ns#"
   xmlns:svg="http://www.w3.org/2000/svg"
   xmlns="http://www.w3.org/2000/svg"
   xmlns:xlink="http://www.w3.org/1999/xlink"
   xmlns:sodipodi="http://sodipodi.sourceforge.net/DTD/sodipodi-0.dtd"
   xmlns:inkscape="http://www.inkscape.org/namespaces/inkscape"
   width="100"
   height="100"
   viewBox="0 0 26.45833 26.45833"
   version="1.1"
   id="svg948"
   inkscape:version="1.0.1 (3bc2e813f5, 2020-09-07)"
   sodipodi:docname="VODART_LOGO.svg">
  <title
     id="title1638">VODART LOGO</title>
  <defs
     id="defs942">
    <linearGradient
       inkscape:collect="always"
       id="linearGradient1006">
      <stop
         style="stop-color:#feff5e;stop-opacity:1"
         offset="0"
         id="stop1002" />
      <stop
         style="stop-color:#d44500;stop-opacity:1"
         offset="1"
         id="stop1004" />
    </linearGradient>
    <clipPath
       clipPathUnits="userSpaceOnUse"
       id="clipPath1012">
      <path
         id="path1014"
         style="fill:#ffffff;fill-opacity:1;stroke:none;stroke-width:13.2292;stroke-linecap:square;stroke-linejoin:bevel"
         d="m 11.509374,19.052543 2.033338,-1.06088 2.596868,4.497916 -2.645832,1e-6 z m 4.630207,-2.251504 a 2.2489581,2.2489581 0 0 1 -2.248958,2.248959 2.2489581,2.2489581 0 0 1 -2.248958,-2.248959 2.2489581,2.2489581 0 0 1 2.248958,-2.248958 2.2489581,2.2489581 0 0 1 2.248958,2.248958 z m -5.820833,-2.248958 h 3.704167 l -1.058333,3.439583 v 4.497917 h -2.645834 z m -5.0270825,1e-6 3.9687495,7.937499 H 1.3229158 Z M 18.52083,3.9687495 v 3.9687492 c -3.1e-5,0.00995 -3.8e-5,0.019976 -2e-6,0.029977 v 3.9387773 l 2.645846,-10e-7 c 2.191881,0 3.96875,-1.77687 3.968749,-3.9687486 2e-6,-2.19188 -1.776868,-3.9687492 -3.968747,-3.96875 l -0.02996,1.8e-6 z M 17.197913,14.552082 v 2.645832 h 2.645834 v 5.291667 h 2.645833 v -5.291666 h 2.645833 v -2.645833 z m 0,-6.6145827 a 3.9687495,3.9687495 0 0 1 -3.96875,3.9687497 3.9687495,3.9687495 0 0 1 -3.9687494,-3.96875 3.9687495,3.9687495 0 0 1 3.9687494,-3.9687495 3.9687495,3.9687495 0 0 1 3.96875,3.9687498 z M 5.2916655,11.906249 1.3229159,3.9687495 H 9.260415 Z" />
    </clipPath>
    <linearGradient
       inkscape:collect="always"
       xlink:href="#linearGradient1006"
       id="linearGradient1028"
       x1="26.45833"
       y1="0"
       x2="0"
       y2="26.45833"
       gradientUnits="userSpaceOnUse" />
  </defs>
  <sodipodi:namedview
     id="base"
     pagecolor="#595959"
     bordercolor="#a441ff"
     borderopacity="0.47843137"
     inkscape:pageopacity="0"
     inkscape:pageshadow="2"
     inkscape:zoom="11.357143"
     inkscape:cx="31.817627"
     inkscape:cy="50.000001"
     inkscape:document-units="px"
     inkscape:current-layer="g951"
     inkscape:document-rotation="0"
     showgrid="false"
     inkscape:pagecheckerboard="true"
     borderlayer="true"
     units="px"
     showguides="false"
     inkscape:guide-bbox="true"
     viewbox-width="26.45833"
     guidecolor="#ffe81e"
     guideopacity="0.59607843"
     guidehicolor="#fff889"
     guidehiopacity="0.85882353"
     inkscape:snap-bbox="true"
     inkscape:bbox-paths="true"
     inkscape:bbox-nodes="true"
     inkscape:snap-bbox-edge-midpoints="true"
     inkscape:snap-bbox-midpoints="true"
     inkscape:object-paths="true"
     inkscape:snap-intersection-paths="true"
     inkscape:snap-smooth-nodes="true"
     inkscape:snap-midpoints="true"
     inkscape:snap-object-midpoints="true"
     inkscape:snap-center="true"
     inkscape:snap-text-baseline="true"
     inkscape:snap-page="true"
     inkscape:snap-grids="true"
     inkscape:snap-perpendicular="true"
     inkscape:snap-tangential="true"
     inkscape:snap-path-clip="true"
     inkscape:snap-path-mask="true"
     inkscape:snap-global="true"
     inkscape:window-width="1920"
     inkscape:window-height="1027"
     inkscape:window-x="1912"
     inkscape:window-y="-8"
     inkscape:window-maximized="1" />
  <metadata
     id="metadata945">
    <rdf:RDF>
      <cc:Work
         rdf:about="">
        <dc:format>image/svg+xml</dc:format>
        <dc:type
           rdf:resource="http://purl.org/dc/dcmitype/StillImage" />
        <dc:title>VODART LOGO</dc:title>
        <dc:date>28/03/2020</dc:date>
        <dc:creator>
          <cc:Agent>
            <dc:title>FreakyWaves</dc:title>
          </cc:Agent>
        </dc:creator>
        <dc:subject>
          <rdf:Bag>
            <rdf:li>LOGO</rdf:li>
          </rdf:Bag>
        </dc:subject>
      </cc:Work>
    </rdf:RDF>
  </metadata>
  <g
     inkscape:label="LOGO FINAL"
     inkscape:groupmode="layer"
     id="g951">
    <rect
       style="fill:url(#linearGradient1028);fill-opacity:1;stroke:#ff1111;stroke-width:0.0661458;stroke-linecap:square;stroke-linejoin:bevel;stroke-miterlimit:4;stroke-dasharray:none;stroke-opacity:1"
       id="rect1000"
       width="26.45833"
       height="26.45833"
       x="0"
       y="0"
       clip-path="url(#clipPath1012)" />
  </g>
</svg>
