<svg version="1" xmlns="http://www.w3.org/2000/svg" width="933.333" height="933.333" viewBox="0 0 700.000000 700.000000"><path d="M87.2 209.5C116 267 139.7 314 140 314c.3 0 5.4-9.8 11.4-21.8 6-11.9 13.8-27.6 17.4-34.7 3.6-7.2 6.6-13.2 6.7-13.5.1-.3 15.7-31.7 34.8-69.8L245 105H35l52.2 104.5zM332 106.6c-10.5 1.9-19.9 5-29.9 10.1-29 14.8-49.6 42.7-55.6 75.3-.4 1.9-.8 8.9-1 15.5-.3 10.8.2 15.9 3 29.6.7 3.8 6.9 18.8 9.4 22.9 1.1 1.9 2.5 4.4 3 5.6 1.6 3.5 12.8 16.9 18.3 21.9 19.9 17.7 44.7 27.3 70.9 27.3 34.5 0 68.1-17.9 87-46.3 23.9-35.9 23.6-81.1-.6-118-5.2-8-19.4-21.9-28-27.7-22.4-14.8-50.5-20.7-76.5-16.2zM490 210v105.1l40.8-.2c35.9-.1 41.8-.4 50.2-2.1 32.6-6.6 62-30.4 75.1-60.8 6.1-14.1 8.4-25.3 8.4-41 0-7.4-.4-15.6-.8-18.1-1.7-10.8-8.1-27.8-14-37.4-4.3-7-6.1-9.3-12.1-16-8.2-9.1-19.6-17.8-30.1-22.9-4.4-2.1-8.7-4.2-9.6-4.6-1.8-.9-14.7-4.5-19.9-5.6-1.9-.4-22.5-.9-45.7-1.1l-42.3-.4V210zM273 490v105h70v-23.5l2 2.5c1.1 1.4 2 2.8 2 3.2 0 .3 2.3 4.5 5.1 9.2l5 8.6h70.1l-2-3.3c-5.4-8.7-50.2-86.9-50.2-87.5 0-.4 3.4-1.5 7.5-2.5s10.4-3.5 14-5.5c29.2-16.7 38.9-53.2 21.9-82.2-3.1-5.4-15.8-19-17.7-19-.5 0-2.2-1-3.9-2.1-1.6-1.2-6.2-3.3-10.1-4.8l-7.2-2.6-53.2-.3-53.3-.3V490zM455 420v35h70v140h70V455h70v-70H455v35zM139 387.3c0 .7-.4 1.7-.9 2.2-.6.6-6.2 11.5-12.5 24.3s-11.7 23.6-12 24c-.3.5-8.8 17.4-18.9 37.8-10.1 20.3-19.2 38.5-20.2 40.4-1 1.9-6.4 12.7-12 24s-11 22.1-12.1 24c-1 1.9-2.8 5.5-3.9 8s-2.9 6.1-4 8c-1 1.9-3.1 6.1-4.7 9.2l-2.7 5.8H245l-39.6-79.3c-21.8-43.5-45.3-90.6-52.3-104.4-11.6-23.3-14.1-27.5-14.1-24z"/></svg>